<?xml version="1.0" encoding="UTF-8" standalone="no"?>
<svg
   xmlns:dc="http://purl.org/dc/elements/1.1/"
   xmlns:cc="http://creativecommons.org/ns#"
   xmlns:rdf="http://www.w3.org/1999/02/22-rdf-syntax-ns#"
   xmlns:svg="http://www.w3.org/2000/svg"
   xmlns="http://www.w3.org/2000/svg"
   xmlns:sodipodi="http://sodipodi.sourceforge.net/DTD/sodipodi-0.dtd"
   xmlns:inkscape="http://www.inkscape.org/namespaces/inkscape"
   id="Ebene_1"
   data-name="Ebene 1"
   viewBox="0 0 482.32801 240.97508"
   version="1.1"
   sodipodi:docname="frontlogob.svg"
   inkscape:export-filename="D:\github\docs\_media\logo-blue.png"
   inkscape:export-xdpi="96"
   inkscape:export-ydpi="96"
   width="482.328"
   height="240.97508"
   inkscape:version="0.92.4 (5da689c313, 2019-01-14)">
  <metadata
     id="metadata37">
    <rdf:RDF>
      <cc:Work
         rdf:about="">
        <dc:format>image/svg+xml</dc:format>
        <dc:type
           rdf:resource="http://purl.org/dc/dcmitype/StillImage" />
        <dc:title>Zeichenfläche 1</dc:title>
      </cc:Work>
    </rdf:RDF>
  </metadata>
  <sodipodi:namedview
     pagecolor="#ffffff"
     bordercolor="#666666"
     borderopacity="1"
     objecttolerance="10"
     gridtolerance="10"
     guidetolerance="10"
     inkscape:pageopacity="0"
     inkscape:pageshadow="2"
     inkscape:window-width="1920"
     inkscape:window-height="1027"
     id="namedview35"
     showgrid="false"
     inkscape:zoom="0.71072071"
     inkscape:cx="717.17614"
     inkscape:cy="199.90863"
     inkscape:window-x="-8"
     inkscape:window-y="-8"
     inkscape:window-maximized="1"
     inkscape:current-layer="Ebene_1"
     height="1"
     showguides="true"
     inkscape:guide-bbox="true">
    <sodipodi:guide
       position="234.26924,297.58525"
       orientation="0,1"
       id="guide6233"
       inkscape:locked="false" />
    <sodipodi:guide
       position="233.56573,165.32514"
       orientation="1,0"
       id="guide6235"
       inkscape:locked="false" />
  </sodipodi:namedview>
  <defs
     id="defs12">
    <style
       id="style10">.cls-1{fill:#010101;}</style>
  </defs>
  <title
     id="title14">Zeichenfläche 1</title>
  <polygon
     class="cls-1"
     points="44.42,115.07 54.16,124.8 129.62,49.35 205.07,124.8 214.81,115.07 129.62,29.87 "
     id="polygon16"
     transform="matrix(0.85895992,0,0,0.85895992,122.48759,-25.657133)"
     style="fill:#1fa3ec;fill-opacity:1" />
  <path
     class="cls-1"
     d="m 233.81738,51.649254 a 45.181292,45.181292 0 0 0 -16.0969,87.407766 v -13.03901 a 33.327645,33.327645 0 0 1 10.18726,-62.025496 v 82.365666 h 11.82788 V 63.992514 a 33.327645,33.327645 0 0 1 10.18726,62.025496 v 12.99606 a 45.181292,45.181292 0 0 0 -16.1055,-87.364816 z"
     id="path18"
     inkscape:connector-curvature="0"
     style="fill:#1fa3ec;fill-opacity:1;stroke-width:0.85895991" />
  <polygon
     class="cls-1"
     points="860.75,74.18 860.75,60.41 772.33,60.41 772.33,74.18 809.65,74.18 809.65,178.31 823.42,178.31 823.42,74.18 "
     id="polygon20"
     style="fill:#d5d5d5;fill-opacity:1"
     transform="matrix(0.7,0,0,0.7,-187.838,115.35308)" />
  <polygon
     class="cls-1"
     points="356.75,74.18 356.75,60.41 268.34,60.41 268.34,74.18 305.66,74.18 305.66,178.31 319.43,178.31 319.43,74.18 "
     id="polygon22"
     style="fill:#d5d5d5;fill-opacity:1"
     transform="matrix(0.7,0,0,0.7,-187.838,115.35308)" />
  <path
     class="cls-1"
     d="m 118.839,240.17008 h 10.696 c -8.673,-17.759 -30.695,-66.353 -30.695,-82.53 H 88.746 c 0,16.177 -22.015,64.771 -30.688,82.53 h 10.689 c 2.576,-5.418 7.098,-15.113 11.837,-26.18 h 26.418 c 4.76,11.067 9.261,20.762 11.837,26.18 z m -34.223,-35.819 c 3.409,-8.4 6.678,-17.024 9.177,-24.899 2.499,7.875 5.775,16.534 9.184,24.899 z"
     id="path24"
     inkscape:connector-curvature="0"
     style="fill:#d5d5d5;fill-opacity:1;stroke-width:0.69999999" />
  <path
     class="cls-1"
     d="m 471.632,240.17008 h 10.696 c -8.666,-17.759 -30.695,-66.353 -30.695,-82.53 h -10.094 c 0,16.177 -22.015,64.771 -30.688,82.53 h 10.689 c 2.583,-5.418 7.098,-15.113 11.837,-26.18 h 26.418 c 4.767,11.067 9.261,20.762 11.837,26.18 z m -34.223,-35.819 c 3.409,-8.4 6.678,-17.024 9.177,-24.899 2.499,7.875 5.775,16.534 9.184,24.899 z"
     id="path26"
     inkscape:connector-curvature="0"
     style="fill:#d5d5d5;fill-opacity:1;stroke-width:0.69999999" />
  <path
     class="cls-1"
     d="m 315.287,167.27908 c 14.343,0 26.019,14.189 26.019,31.626 0,17.437 -11.676,31.626 -26.019,31.626 -14.343,0 -26.019,-14.189 -26.019,-31.626 0,-17.437 11.669,-31.626 26.019,-31.626 m 0,-9.639 c -19.698,0 -35.658,18.473 -35.658,41.3 0,22.827 15.96,41.3 35.658,41.3 19.698,0 35.658,-18.473 35.658,-41.265 0,-22.792 -15.967,-41.265 -35.658,-41.265 z"
     id="path28"
     inkscape:connector-curvature="0"
     style="fill:#d5d5d5;fill-opacity:1;stroke-width:0.69999999" />
  <path
     class="cls-1"
     d="m 161.462,240.97508 a 25.368,25.368 0 0 1 -25.256,-25.417 h 9.639 a 15.617,15.617 0 1 0 31.234,0 16.002,16.002 0 0 0 -4.347,-10.927 c -2.8,-2.94 -6.3,-4.403 -11.795,-4.9 -6.3,-0.56 -11.165,-2.744 -14.805,-6.671 a 21.371,21.371 0 0 1 -5.6,-14.357 20.944,20.944 0 1 1 41.888,0 h -9.653 a 11.305,11.305 0 1 0 -22.61,0 11.585,11.585 0 0 0 3.052,7.805 c 1.995,2.156 4.641,3.276 8.582,3.619 4.9,0.441 12.11,1.736 17.927,7.861 a 25.746,25.746 0 0 1 7,17.563 25.368,25.368 0 0 1 -25.256,25.424 z"
     id="path30"
     inkscape:connector-curvature="0"
     style="fill:#d5d5d5;fill-opacity:1;stroke-width:0.69999999" />
  <path
     class="cls-1"
     d="m 265.51,157.69608 v 0 -0.056 h -9.667 v 0.259 c -0.301,3.206 -7.917,11.543 -21.896,21.469 -15.533,-11.025 -21.609,-18.83 -21.896,-21.469 v -0.259 h -9.632 v 0.056 0 c 0,0.119 0,0.238 0,0.357 v 82.117 h 9.632 v -66.213 q 7.056,6.937 19.201,15.281 l 2.716,1.827 2.702,-1.848 q 12.138,-8.302 19.173,-15.246 v 66.199 h 9.632 v -82.117 c 0.007,-0.105 0.035,-0.231 0.035,-0.357 z"
     id="path32"
     inkscape:connector-curvature="0"
     style="fill:#d5d5d5;fill-opacity:1;stroke-width:0.69999999" />
</svg>
