<svg xmlns="http://www.w3.org/2000/svg" xmlns:svg="http://www.w3.org/2000/svg" id="Ebene_1" width="482.328" height="240.975" data-name="Ebene 1" version="1.1" viewBox="0 0 482.328 240.975"><metadata id="metadata37"/><defs id="defs12"><style id="style10">.cls-1{fill:#010101}</style></defs><title id="title14">Zeichenfläche 1</title><polygon id="polygon16" points="44.42 115.07 54.16 124.8 129.62 49.35 205.07 124.8 214.81 115.07 129.62 29.87" class="cls-1" transform="matrix(0.85895992,0,0,0.85895992,122.48759,-25.657133)" style="fill:#1fa3ec;fill-opacity:1"/><path id="path18" d="m 233.81738,51.649254 a 45.181292,45.181292 0 0 0 -16.0969,87.407766 v -13.03901 a 33.327645,33.327645 0 0 1 10.18726,-62.025496 v 82.365666 h 11.82788 V 63.992514 a 33.327645,33.327645 0 0 1 10.18726,62.025496 v 12.99606 a 45.181292,45.181292 0 0 0 -16.1055,-87.364816 z" class="cls-1" style="fill:#1fa3ec;fill-opacity:1;stroke-width:.85895991"/><polygon id="polygon20" points="860.75 74.18 860.75 60.41 772.33 60.41 772.33 74.18 809.65 74.18 809.65 178.31 823.42 178.31 823.42 74.18" class="cls-1" style="fill:#000;fill-opacity:1" transform="matrix(0.7,0,0,0.7,-187.838,115.35308)"/><polygon id="polygon22" points="356.75 74.18 356.75 60.41 268.34 60.41 268.34 74.18 305.66 74.18 305.66 178.31 319.43 178.31 319.43 74.18" class="cls-1" style="fill:#000;fill-opacity:1" transform="matrix(0.7,0,0,0.7,-187.838,115.35308)"/><path id="path24" d="m 118.839,240.17008 h 10.696 c -8.673,-17.759 -30.695,-66.353 -30.695,-82.53 H 88.746 c 0,16.177 -22.015,64.771 -30.688,82.53 h 10.689 c 2.576,-5.418 7.098,-15.113 11.837,-26.18 h 26.418 c 4.76,11.067 9.261,20.762 11.837,26.18 z m -34.223,-35.819 c 3.409,-8.4 6.678,-17.024 9.177,-24.899 2.499,7.875 5.775,16.534 9.184,24.899 z" class="cls-1" style="fill:#000;fill-opacity:1;stroke-width:.69999999"/><path id="path26" d="m 471.632,240.17008 h 10.696 c -8.666,-17.759 -30.695,-66.353 -30.695,-82.53 h -10.094 c 0,16.177 -22.015,64.771 -30.688,82.53 h 10.689 c 2.583,-5.418 7.098,-15.113 11.837,-26.18 h 26.418 c 4.767,11.067 9.261,20.762 11.837,26.18 z m -34.223,-35.819 c 3.409,-8.4 6.678,-17.024 9.177,-24.899 2.499,7.875 5.775,16.534 9.184,24.899 z" class="cls-1" style="fill:#000;fill-opacity:1;stroke-width:.69999999"/><path id="path28" d="m 315.287,167.27908 c 14.343,0 26.019,14.189 26.019,31.626 0,17.437 -11.676,31.626 -26.019,31.626 -14.343,0 -26.019,-14.189 -26.019,-31.626 0,-17.437 11.669,-31.626 26.019,-31.626 m 0,-9.639 c -19.698,0 -35.658,18.473 -35.658,41.3 0,22.827 15.96,41.3 35.658,41.3 19.698,0 35.658,-18.473 35.658,-41.265 0,-22.792 -15.967,-41.265 -35.658,-41.265 z" class="cls-1" style="fill:#000;fill-opacity:1;stroke-width:.69999999"/><path id="path30" d="m 161.462,240.97508 a 25.368,25.368 0 0 1 -25.256,-25.417 h 9.639 a 15.617,15.617 0 1 0 31.234,0 16.002,16.002 0 0 0 -4.347,-10.927 c -2.8,-2.94 -6.3,-4.403 -11.795,-4.9 -6.3,-0.56 -11.165,-2.744 -14.805,-6.671 a 21.371,21.371 0 0 1 -5.6,-14.357 20.944,20.944 0 1 1 41.888,0 h -9.653 a 11.305,11.305 0 1 0 -22.61,0 11.585,11.585 0 0 0 3.052,7.805 c 1.995,2.156 4.641,3.276 8.582,3.619 4.9,0.441 12.11,1.736 17.927,7.861 a 25.746,25.746 0 0 1 7,17.563 25.368,25.368 0 0 1 -25.256,25.424 z" class="cls-1" style="fill:#000;fill-opacity:1;stroke-width:.69999999"/><path id="path32" d="m 265.51,157.69608 v 0 -0.056 h -9.667 v 0.259 c -0.301,3.206 -7.917,11.543 -21.896,21.469 -15.533,-11.025 -21.609,-18.83 -21.896,-21.469 v -0.259 h -9.632 v 0.056 0 c 0,0.119 0,0.238 0,0.357 v 82.117 h 9.632 v -66.213 q 7.056,6.937 19.201,15.281 l 2.716,1.827 2.702,-1.848 q 12.138,-8.302 19.173,-15.246 v 66.199 h 9.632 v -82.117 c 0.007,-0.105 0.035,-0.231 0.035,-0.357 z" class="cls-1" style="fill:#000;fill-opacity:1;stroke-width:.69999999"/></svg>