<?xml version="1.0" encoding="UTF-8" standalone="no"?>
<svg
   xmlns:osb="http://www.openswatchbook.org/uri/2009/osb"
   xmlns:dc="http://purl.org/dc/elements/1.1/"
   xmlns:cc="http://creativecommons.org/ns#"
   xmlns:rdf="http://www.w3.org/1999/02/22-rdf-syntax-ns#"
   xmlns:svg="http://www.w3.org/2000/svg"
   xmlns="http://www.w3.org/2000/svg"
   xmlns:xlink="http://www.w3.org/1999/xlink"
   xmlns:sodipodi="http://sodipodi.sourceforge.net/DTD/sodipodi-0.dtd"
   xmlns:inkscape="http://www.inkscape.org/namespaces/inkscape"
   id="Ebene_1"
   data-name="Ebene 1"
   viewBox="0 0 912.96003 170.89"
   version="1.1"
   sodipodi:docname="logob.svg"
   inkscape:export-filename="D:\github\docs\_media\logo-blue.png"
   inkscape:export-xdpi="96"
   inkscape:export-ydpi="96"
   inkscape:version="0.92.4 (5da689c313, 2019-01-14)"
   width="912.96002"
   height="170.89">
  <metadata
     id="metadata37">
    <rdf:RDF>
      <cc:Work
         rdf:about="">
        <dc:format>image/svg+xml</dc:format>
        <dc:type
           rdf:resource="http://purl.org/dc/dcmitype/StillImage" />
        <dc:title>Tasmota Logo</dc:title>
      </cc:Work>
    </rdf:RDF>
  </metadata>
  <sodipodi:namedview
     pagecolor="#000000"
     bordercolor="#666666"
     borderopacity="1"
     objecttolerance="10"
     gridtolerance="10"
     guidetolerance="10"
     inkscape:pageopacity="0"
     inkscape:pageshadow="2"
     inkscape:window-width="1920"
     inkscape:window-height="1027"
     id="namedview35"
     showgrid="false"
     inkscape:zoom="1.0051109"
     inkscape:cx="375.07695"
     inkscape:cy="45.27575"
     inkscape:window-x="-8"
     inkscape:window-y="-8"
     inkscape:window-maximized="1"
     inkscape:current-layer="Ebene_1" />
  <defs
     id="defs12">
    <linearGradient
       id="linearGradient6191"
       osb:paint="solid">
      <stop
         style="stop-color:#010101;stop-opacity:1;"
         offset="0"
         id="stop6189" />
    </linearGradient>
    <linearGradient
       id="linearGradient6185"
       osb:paint="solid">
      <stop
         style="stop-color:#010101;stop-opacity:1;"
         offset="0"
         id="stop6183" />
    </linearGradient>
    <linearGradient
       id="linearGradient6179"
       osb:paint="solid">
      <stop
         style="stop-color:#010101;stop-opacity:1;"
         offset="0"
         id="stop6177" />
    </linearGradient>
    <linearGradient
       id="linearGradient6173"
       osb:paint="solid">
      <stop
         style="stop-color:#010101;stop-opacity:1;"
         offset="0"
         id="stop6171" />
    </linearGradient>
    <linearGradient
       id="linearGradient6167"
       osb:paint="solid">
      <stop
         style="stop-color:#010101;stop-opacity:1;"
         offset="0"
         id="stop6165" />
    </linearGradient>
    <linearGradient
       id="linearGradient6161"
       osb:paint="solid">
      <stop
         style="stop-color:#010101;stop-opacity:1;"
         offset="0"
         id="stop6159" />
    </linearGradient>
    <linearGradient
       id="linearGradient6155"
       osb:paint="solid">
      <stop
         style="stop-color:#010101;stop-opacity:1;"
         offset="0"
         id="stop6153" />
    </linearGradient>
    <linearGradient
       id="linearGradient6149"
       osb:paint="solid">
      <stop
         style="stop-color:#1fa3ec;stop-opacity:1;"
         offset="0"
         id="stop6147" />
    </linearGradient>
    <linearGradient
       id="linearGradient6117"
       osb:paint="solid">
      <stop
         style="stop-color:#010101;stop-opacity:1;"
         offset="0"
         id="stop6115" />
    </linearGradient>
    <linearGradient
       id="linearGradient6109"
       osb:paint="gradient">
      <stop
         style="stop-color:#1fa3ec;stop-opacity:1;"
         offset="0"
         id="stop6105" />
      <stop
         style="stop-color:#1fa3ec;stop-opacity:0;"
         offset="1"
         id="stop6107" />
    </linearGradient>
    <linearGradient
       id="linearGradient6075"
       osb:paint="solid">
      <stop
         style="stop-color:#010101;stop-opacity:1;"
         offset="0"
         id="stop6073" />
    </linearGradient>
    <linearGradient
       id="linearGradient6069"
       osb:paint="solid">
      <stop
         style="stop-color:#010101;stop-opacity:1;"
         offset="0"
         id="stop6067" />
    </linearGradient>
    <linearGradient
       id="linearGradient6063"
       osb:paint="solid">
      <stop
         style="stop-color:#010101;stop-opacity:1;"
         offset="0"
         id="stop6061" />
    </linearGradient>
    <linearGradient
       id="linearGradient6057"
       osb:paint="solid">
      <stop
         style="stop-color:#1fa3ec;stop-opacity:1;"
         offset="0"
         id="stop6055" />
    </linearGradient>
    <linearGradient
       id="linearGradient6025"
       osb:paint="solid">
      <stop
         style="stop-color:#1fa3ec;stop-opacity:1;"
         offset="0"
         id="stop6023" />
    </linearGradient>
    <style
       id="style10">.cls-1{fill:#010101;}</style>
    <linearGradient
       inkscape:collect="always"
       xlink:href="#linearGradient6025"
       id="linearGradient6027"
       x1="76.474876"
       y1="145.13"
       x2="182.62442"
       y2="145.13"
       gradientUnits="userSpaceOnUse"
       gradientTransform="translate(-44.42,-29.87)" />
  </defs>
  <title
     id="title14">Tasmota Logo</title>
  <polygon
     class="cls-1"
     points="54.16,124.8 129.62,49.35 205.07,124.8 214.81,115.07 129.62,29.87 44.42,115.07 "
     id="polygon16"
     style="fill:#d5dee3;fill-opacity:1"
     transform="translate(-44.42,-29.87)" />
  <path
     class="cls-1"
     d="M 85.19,60.13 A 52.6,52.6 0 0 0 66.45,161.89 V 146.71 A 38.8,38.8 0 0 1 78.31,74.5 v 95.89 H 92.08 V 74.5 a 38.8,38.8 0 0 1 11.86,72.21 v 15.13 A 52.6,52.6 0 0 0 85.19,60.13 Z"
     id="path18"
     style="fill:#d5dee3;fill-opacity:1;stroke:url(#linearGradient6027);stroke-opacity:0"
     inkscape:connector-curvature="0" />
  <polygon
     class="cls-1"
     points="772.33,74.18 809.65,74.18 809.65,178.31 823.42,178.31 823.42,74.18 860.75,74.18 860.75,60.41 772.33,60.41 "
     id="polygon20"
     style="fill:#d5dee3;fill-opacity:1"
     transform="translate(-44.42,-29.87)" />
  <polygon
     class="cls-1"
     points="268.34,74.18 305.66,74.18 305.66,178.31 319.43,178.31 319.43,74.18 356.75,74.18 356.75,60.41 268.34,60.41 "
     id="polygon22"
     style="fill:#d5dee3;fill-opacity:1"
     transform="translate(-44.42,-29.87)" />
  <path
     class="cls-1"
     d="m 393.69,148.44 h 15.28 C 396.58,123.07 365.12,53.65 365.12,30.54 H 350.7 c 0,23.11 -31.45,92.53 -43.84,117.9 h 15.27 c 3.68,-7.74 10.14,-21.59 16.91,-37.4 h 37.74 c 6.8,15.81 13.23,29.66 16.91,37.4 z M 344.8,97.27 c 4.87,-12 9.54,-24.32 13.11,-35.57 3.57,11.25 8.25,23.62 13.12,35.57 z"
     id="path24"
     style="fill:#d5dee3;fill-opacity:1"
     inkscape:connector-curvature="0" />
  <path
     class="cls-1"
     d="m 897.68,148.44 h 15.28 C 900.58,123.07 869.11,53.65 869.11,30.54 h -14.42 c 0,23.11 -31.45,92.53 -43.84,117.9 h 15.27 c 3.69,-7.74 10.14,-21.59 16.91,-37.4 h 37.74 c 6.81,15.81 13.23,29.66 16.91,37.4 z M 848.79,97.27 c 4.87,-12 9.54,-24.32 13.11,-35.57 3.57,11.25 8.25,23.62 13.12,35.57 z"
     id="path26"
     style="fill:#d5dee3;fill-opacity:1"
     inkscape:connector-curvature="0" />
  <path
     class="cls-1"
     d="m 674.33,44.31 c 20.49,0 37.17,20.27 37.17,45.18 0,24.91 -16.68,45.18 -37.17,45.18 -20.49,0 -37.17,-20.27 -37.17,-45.18 0,-24.91 16.67,-45.18 37.17,-45.18 m 0,-13.77 c -28.14,0 -50.94,26.39 -50.94,59 0,32.61 22.8,59 50.94,59 28.14,0 50.94,-26.39 50.94,-58.95 0,-32.56 -22.81,-58.95 -50.94,-58.95 z"
     id="path28"
     style="fill:#d5dee3;fill-opacity:1"
     inkscape:connector-curvature="0" />
  <path
     class="cls-1"
     d="M 454.58,149.59 A 36.24,36.24 0 0 1 418.5,113.28 h 13.77 a 22.31,22.31 0 1 0 44.62,0 22.86,22.86 0 0 0 -6.21,-15.61 c -4,-4.2 -9,-6.29 -16.85,-7 -9,-0.8 -15.95,-3.92 -21.15,-9.53 a 30.53,30.53 0 0 1 -8,-20.51 29.92,29.92 0 1 1 59.84,0 h -13.79 a 16.15,16.15 0 1 0 -32.3,0 16.55,16.55 0 0 0 4.36,11.15 c 2.85,3.08 6.63,4.68 12.26,5.17 7,0.63 17.3,2.48 25.61,11.23 a 36.78,36.78 0 0 1 10,25.09 36.24,36.24 0 0 1 -36.08,36.32 z"
     id="path30"
     style="fill:#d5dee3;fill-opacity:1"
     inkscape:connector-curvature="0" />
  <path
     class="cls-1"
     d="m 603.22,30.62 v 0 -0.08 h -13.81 v 0.37 C 588.98,35.49 578.1,47.4 558.13,61.58 535.94,45.83 527.26,34.68 526.85,30.91 v -0.37 h -13.76 v 0.08 0 c 0,0.17 0,0.34 0,0.51 v 117.31 h 13.76 V 53.85 q 10.08,9.91 27.43,21.83 l 3.88,2.61 3.86,-2.64 q 17.34,-11.86 27.39,-21.78 v 94.57 h 13.76 V 31.13 c 0.01,-0.15 0.05,-0.33 0.05,-0.51 z"
     id="path32"
     style="fill:#d5dee3;fill-opacity:1"
     inkscape:connector-curvature="0" />
  <path
     style="fill:#d5dee3;fill-opacity:1;stroke:#1fa3ec;stroke-width:0.70351124;stroke-opacity:0"
     d="M 4.9344766,89.779403 0.56619159,85.37194 42.946578,42.995898 85.326963,0.61985333 127.72047,43.017698 l 42.3935,42.397846 -4.59092,4.550107 -4.59091,4.550106 L 123.4767,57.065215 C 102.8762,36.467417 85.70465,19.614675 85.31769,19.614675 c -0.386959,0 -17.48006,16.778743 -37.984675,37.286095 C 26.8284,77.408123 9.8833418,94.186866 9.6773291,94.186866 c -0.2060121,0 -2.3402956,-1.98336 -4.7428525,-4.407463 z"
     id="path6568"
     inkscape:connector-curvature="0" />
</svg>
