<?xml version="1.0" encoding="UTF-8" standalone="no"?>
<svg
   xmlns:osb="http://www.openswatchbook.org/uri/2009/osb"
   xmlns:dc="http://purl.org/dc/elements/1.1/"
   xmlns:cc="http://creativecommons.org/ns#"
   xmlns:rdf="http://www.w3.org/1999/02/22-rdf-syntax-ns#"
   xmlns:svg="http://www.w3.org/2000/svg"
   xmlns="http://www.w3.org/2000/svg"
   xmlns:sodipodi="http://sodipodi.sourceforge.net/DTD/sodipodi-0.dtd"
   xmlns:inkscape="http://www.inkscape.org/namespaces/inkscape"
   id="Ebene_1"
   data-name="Ebene 1"
   viewBox="0 0 1200 627.99999"
   version="1.1"
   sodipodi:docname="logo-twitter.svg"
   inkscape:export-filename="D:\github\docs\_media\logo-blue.png"
   inkscape:export-xdpi="96"
   inkscape:export-ydpi="96"
   width="1200"
   height="628"
   inkscape:version="0.92.4 (5da689c313, 2019-01-14)">
  <metadata
     id="metadata37">
    <rdf:RDF>
      <cc:Work
         rdf:about="">
        <dc:format>image/svg+xml</dc:format>
        <dc:type
           rdf:resource="http://purl.org/dc/dcmitype/StillImage" />
        <dc:title>Zeichenfläche 1</dc:title>
      </cc:Work>
    </rdf:RDF>
  </metadata>
  <sodipodi:namedview
     pagecolor="#4f99c2"
     bordercolor="#666666"
     borderopacity="1"
     objecttolerance="10"
     gridtolerance="10"
     guidetolerance="10"
     inkscape:pageopacity="1"
     inkscape:pageshadow="2"
     inkscape:window-width="1920"
     inkscape:window-height="1027"
     id="namedview35"
     showgrid="false"
     inkscape:zoom="0.71072071"
     inkscape:cx="717.17614"
     inkscape:cy="199.90863"
     inkscape:window-x="-8"
     inkscape:window-y="-8"
     inkscape:window-maximized="1"
     inkscape:current-layer="Ebene_1"
     height="1"
     showguides="true"
     inkscape:guide-bbox="true">
    <sodipodi:guide
       position="593.10526,476.8627"
       orientation="0,1"
       id="guide6233"
       inkscape:locked="false" />
    <sodipodi:guide
       position="592.40175,344.60259"
       orientation="1,0"
       id="guide6235"
       inkscape:locked="false" />
  </sodipodi:namedview>
  <defs
     id="defs12">
    <linearGradient
       id="linearGradient7741"
       osb:paint="solid">
      <stop
         style="stop-color:#1fa3ec;stop-opacity:1;"
         offset="0"
         id="stop7739" />
    </linearGradient>
    <linearGradient
       id="linearGradient7735"
       osb:paint="solid">
      <stop
         style="stop-color:#1fa3ec;stop-opacity:1;"
         offset="0"
         id="stop7733" />
    </linearGradient>
    <linearGradient
       id="linearGradient7729"
       osb:paint="solid">
      <stop
         style="stop-color:#e1e1e1;stop-opacity:1;"
         offset="0"
         id="stop7727" />
    </linearGradient>
    <linearGradient
       id="linearGradient7723"
       osb:paint="solid">
      <stop
         style="stop-color:#e1e1e1;stop-opacity:1;"
         offset="0"
         id="stop7721" />
    </linearGradient>
    <linearGradient
       id="linearGradient7717"
       osb:paint="solid">
      <stop
         style="stop-color:#e1e1e1;stop-opacity:1;"
         offset="0"
         id="stop7715" />
    </linearGradient>
    <linearGradient
       id="linearGradient7711"
       osb:paint="solid">
      <stop
         style="stop-color:#e1e1e1;stop-opacity:1;"
         offset="0"
         id="stop7709" />
    </linearGradient>
    <linearGradient
       id="linearGradient7705"
       osb:paint="solid">
      <stop
         style="stop-color:#e1e1e1;stop-opacity:1;"
         offset="0"
         id="stop7703" />
    </linearGradient>
    <linearGradient
       id="linearGradient7699"
       osb:paint="solid">
      <stop
         style="stop-color:#e1e1e1;stop-opacity:1;"
         offset="0"
         id="stop7697" />
    </linearGradient>
    <linearGradient
       id="linearGradient7693"
       osb:paint="solid">
      <stop
         style="stop-color:#e1e1e1;stop-opacity:1;"
         offset="0"
         id="stop7691" />
    </linearGradient>
    <style
       id="style10">.cls-1{fill:#010101;}</style>
  </defs>
  <title
     id="title14">Zeichenfläche 1</title>
  <polygon
     class="cls-1"
     points="205.07,124.8 214.81,115.07 129.62,29.87 44.42,115.07 54.16,124.8 129.62,49.35 "
     id="polygon16"
     transform="matrix(2.1370353,0,0,2.1370353,304.74099,-51.363212)"
     style="fill:#000000;fill-opacity:1" />
  <path
     class="cls-1"
     d="M 581.72212,140.96994 A 112.40805,112.40805 0 0 0 541.6741,358.43466 v -32.44019 a 82.916968,82.916968 0 0 1 25.34523,-154.31532 v 204.92031 h 29.42698 V 171.67915 a 82.916968,82.916968 0 0 1 25.34522,154.31532 v 32.33334 A 112.40805,112.40805 0 0 0 581.72212,140.96994 Z"
     id="path18"
     inkscape:connector-curvature="0"
     style="fill:#000000;fill-opacity:1;stroke-width:2.13703513" />
  <polygon
     class="cls-1"
     points="823.42,74.18 860.75,74.18 860.75,60.41 772.33,60.41 772.33,74.18 809.65,74.18 809.65,178.31 823.42,178.31 "
     id="polygon20"
     style="fill:#000000;fill-opacity:1"
     transform="matrix(1.7415535,0,0,1.7415535,-467.32847,299.46083)" />
  <polygon
     class="cls-1"
     points="319.43,74.18 356.75,74.18 356.75,60.41 268.34,60.41 268.34,74.18 305.66,74.18 305.66,178.31 319.43,178.31 "
     id="polygon22"
     style="fill:#000000;fill-opacity:1"
     transform="matrix(1.7415535,0,0,1.7415535,-467.32847,299.46083)" />
  <path
     class="cls-1"
     d="m 295.66355,609.99724 h 26.61093 C 300.69663,565.81403 245.90736,444.91538 245.90736,404.66808 h -25.1132 c 0,40.2473 -54.77186,161.14595 -76.34971,205.32916 h 26.59352 c 6.40892,-13.47962 17.65935,-37.60014 29.44967,-65.1341 h 65.72624 c 11.84256,27.53396 23.04075,51.65448 29.44967,65.1341 z m -85.14456,-89.11529 c 8.48137,-20.89864 16.61442,-42.35458 22.83177,-61.94706 6.21734,19.59248 14.36781,41.13549 22.84918,61.94706 z"
     id="path24"
     inkscape:connector-curvature="0"
     style="fill:#000000;fill-opacity:1;stroke-width:1.74155354" />
  <path
     class="cls-1"
     d="M 1173.3891,609.99724 H 1200 c -21.5604,-44.18321 -76.3671,-165.08186 -76.3671,-205.32916 h -25.1132 c 0,40.2473 -54.7718,161.14595 -76.3497,205.32916 h 26.5935 c 6.4264,-13.47962 17.6594,-37.60014 29.4497,-65.1341 h 65.7262 c 11.86,27.53396 23.0408,51.65448 29.4497,65.1341 z m -85.1445,-89.11529 c 8.4813,-20.89864 16.6144,-42.35458 22.8317,-61.94706 6.2174,19.59248 14.3678,41.13549 22.8492,61.94706 z"
     id="path26"
     inkscape:connector-curvature="0"
     style="fill:#000000;fill-opacity:1;stroke-width:1.74155354" />
  <path
     class="cls-1"
     d="m 784.41312,428.64927 c 35.68443,0 64.73355,35.30129 64.73355,78.68339 0,43.3821 -29.04912,78.68339 -64.73355,78.68339 -35.68443,0 -64.73354,-35.30129 -64.73354,-78.68339 0,-43.3821 29.0317,-78.68339 64.73354,-78.68339 m 0,-23.98119 c -49.00731,0 -88.71473,45.9596 -88.71473,102.75166 0,56.79206 39.70742,102.75166 88.71473,102.75166 49.00732,0 88.71474,-45.9596 88.71474,-102.66458 0,-56.70498 -39.72484,-102.66458 -88.71474,-102.66458 z"
     id="path28"
     inkscape:connector-curvature="0"
     style="fill:#000000;fill-opacity:1;stroke-width:1.74155354" />
  <path
     class="cls-1"
     d="m 401.70674,612.00003 a 63.1139,63.1139 0 0 1 -62.83525,-63.23581 h 23.98119 a 38.85406,38.85406 0 1 0 77.70812,0 39.811914,39.811914 0 0 0 -10.81505,-27.18565 c -6.96621,-7.31452 -15.67398,-10.95437 -29.34518,-12.19087 -15.67398,-1.39325 -27.77777,-6.82689 -36.83385,-16.59701 a 53.169629,53.169629 0 0 1 -13.93243,-35.71926 52.107281,52.107281 0 1 1 104.21456,0 h -24.01602 a 28.12609,28.12609 0 1 0 -56.25218,0 28.822711,28.822711 0 0 0 7.59317,19.41832 c 4.96343,5.36399 11.5465,8.15047 21.35145,9.00383 12.19087,1.09718 30.12888,4.31905 44.60119,19.55765 a 64.054339,64.054339 0 0 1 17.41553,43.69558 63.1139,63.1139 0 0 1 -62.83525,63.25322 z"
     id="path30"
     inkscape:connector-curvature="0"
     style="fill:#000000;fill-opacity:1;stroke-width:1.74155354" />
  <path
     class="cls-1"
     d="m 660.57125,404.80741 v 0 -0.13933 H 636.5204 v 0.64438 c -0.74887,7.97631 -19.69697,28.71822 -54.4758,53.41344 -38.64507,-27.42946 -53.76175,-46.84779 -54.47579,-53.41344 v -0.64438 h -23.96378 v 0.13933 0 c 0,0.29606 0,0.59213 0,0.88819 v 204.30164 h 23.96378 V 445.2637 q 17.55486,17.25879 47.77081,38.01811 l 6.75723,4.54545 6.7224,-4.5977 q 30.19853,-20.65482 47.70115,-37.93103 v 164.69871 h 23.96377 V 405.6956 c 0.0174,-0.26123 0.0871,-0.57471 0.0871,-0.88819 z"
     id="path32"
     inkscape:connector-curvature="0"
     style="fill:#000000;fill-opacity:1;stroke-width:1.74155354" />
</svg>
