<svg xmlns="http://www.w3.org/2000/svg" xmlns:svg="http://www.w3.org/2000/svg" id="svg8" width="736.985" height="225.027" version="1.1" viewBox="0 0 194.994 59.538"><defs id="defs2"><marker style="overflow:visible" id="marker1331" orient="auto" refX="0" refY="0"><path id="path1329" d="M 8.7185878,4.0337352 -2.2072895,0.01601326 8.7185884,-4.0017078 c -1.7454984,2.3720609 -1.7354408,5.6174519 -6e-7,8.035443 z" transform="matrix(-1.1,0,0,-1.1,-1.1,0)" style="fill:#000;fill-opacity:1;fill-rule:evenodd;stroke:#000;stroke-width:.625;stroke-linejoin:round;stroke-opacity:1"/></marker><marker style="overflow:visible" id="marker1231" orient="auto" refX="0" refY="0"><path id="path1229" d="M 8.7185878,4.0337352 -2.2072895,0.01601326 8.7185884,-4.0017078 c -1.7454984,2.3720609 -1.7354408,5.6174519 -6e-7,8.035443 z" transform="matrix(-1.1,0,0,-1.1,-1.1,0)" style="fill:#000;fill-opacity:1;fill-rule:evenodd;stroke:#000;stroke-width:.625;stroke-linejoin:round;stroke-opacity:1"/></marker><marker style="overflow:visible" id="marker2166" orient="auto" refX="0" refY="0"><path id="path2164" d="M 8.7185878,4.0337352 -2.2072895,0.01601326 8.7185884,-4.0017078 c -1.7454984,2.3720609 -1.7354408,5.6174519 -6e-7,8.035443 z" transform="matrix(1.1,0,0,1.1,1.1,0)" style="fill:red;fill-opacity:1;fill-rule:evenodd;stroke:red;stroke-width:.625;stroke-linejoin:round;stroke-opacity:1"/></marker><marker style="overflow:visible" id="marker2072" orient="auto" refX="0" refY="0"><path id="path2070" d="M 8.7185878,4.0337352 -2.2072895,0.01601326 8.7185884,-4.0017078 c -1.7454984,2.3720609 -1.7354408,5.6174519 -6e-7,8.035443 z" transform="matrix(1.1,0,0,1.1,1.1,0)" style="fill:red;fill-opacity:1;fill-rule:evenodd;stroke:red;stroke-width:.625;stroke-linejoin:round;stroke-opacity:1"/></marker><marker style="overflow:visible" id="Arrow2Lstart" orient="auto" refX="0" refY="0"><path id="path1008" d="M 8.7185878,4.0337352 -2.2072895,0.01601326 8.7185884,-4.0017078 c -1.7454984,2.3720609 -1.7354408,5.6174519 -6e-7,8.035443 z" transform="matrix(1.1,0,0,1.1,1.1,0)" style="fill:red;fill-opacity:1;fill-rule:evenodd;stroke:red;stroke-width:.625;stroke-linejoin:round;stroke-opacity:1"/></marker><marker style="overflow:visible" id="marker1886" orient="auto" refX="0" refY="0"><path transform="matrix(0.8,0,0,0.8,5.92,0.8)" style="fill:red;fill-opacity:1;fill-rule:evenodd;stroke:red;stroke-width:1pt;stroke-opacity:1" id="path1884" d="m -2.5,-1 c 0,2.76 -2.24,5 -5,5 -2.76,0 -5,-2.24 -5,-5 0,-2.76 2.24,-5 5,-5 2.76,0 5,2.24 5,5 z"/></marker><marker style="overflow:visible" id="marker1474" orient="auto" refX="0" refY="0"><path id="path1472" d="M 8.7185878,4.0337352 -2.2072895,0.01601326 8.7185884,-4.0017078 c -1.7454984,2.3720609 -1.7354408,5.6174519 -6e-7,8.035443 z" transform="matrix(-1.1,0,0,-1.1,-1.1,0)" style="fill:#00f;fill-opacity:1;fill-rule:evenodd;stroke:#00f;stroke-width:.625;stroke-linejoin:round;stroke-opacity:1"/></marker><marker style="overflow:visible" id="Arrow2Lend" orient="auto" refX="0" refY="0"><path id="path1011" d="M 8.7185878,4.0337352 -2.2072895,0.01601326 8.7185884,-4.0017078 c -1.7454984,2.3720609 -1.7354408,5.6174519 -6e-7,8.035443 z" transform="matrix(-1.1,0,0,-1.1,-1.1,0)" style="fill:#00f;fill-opacity:1;fill-rule:evenodd;stroke:#00f;stroke-width:.625;stroke-linejoin:round;stroke-opacity:1"/></marker><marker style="overflow:visible" id="DotL" orient="auto" refX="0" refY="0"><path transform="matrix(0.8,0,0,0.8,5.92,0.8)" style="fill:#00f;fill-opacity:1;fill-rule:evenodd;stroke:#00f;stroke-width:1pt;stroke-opacity:1" id="path1051" d="m -2.5,-1 c 0,2.76 -2.24,5 -5,5 -2.76,0 -5,-2.24 -5,-5 0,-2.76 2.24,-5 5,-5 2.76,0 5,2.24 5,5 z"/></marker><marker style="overflow:visible" id="Arrow2Lend-4" orient="auto" refX="0" refY="0"><path id="path1011-9" d="M 8.7185878,4.0337352 -2.2072895,0.01601326 8.7185884,-4.0017078 c -1.7454984,2.3720609 -1.7354408,5.6174519 -6e-7,8.035443 z" transform="matrix(-1.1,0,0,-1.1,-1.1,0)" style="fill:#00f;fill-opacity:1;fill-rule:evenodd;stroke:#00f;stroke-width:.625;stroke-linejoin:round;stroke-opacity:1"/></marker><marker style="overflow:visible" id="DotL-9" orient="auto" refX="0" refY="0"><path transform="matrix(0.8,0,0,0.8,5.92,0.8)" style="fill:#00f;fill-opacity:1;fill-rule:evenodd;stroke:#00f;stroke-width:1pt;stroke-opacity:1" id="path1051-1" d="m -2.5,-1 c 0,2.76 -2.24,5 -5,5 -2.76,0 -5,-2.24 -5,-5 0,-2.76 2.24,-5 5,-5 2.76,0 5,2.24 5,5 z"/></marker><marker style="overflow:visible" id="Arrow2Lend-4-8" orient="auto" refX="0" refY="0"><path id="path1011-9-8" d="M 8.7185878,4.0337352 -2.2072895,0.01601326 8.7185884,-4.0017078 c -1.7454984,2.3720609 -1.7354408,5.6174519 -6e-7,8.035443 z" transform="matrix(-1.1,0,0,-1.1,-1.1,0)" style="fill:#00f;fill-opacity:1;fill-rule:evenodd;stroke:#00f;stroke-width:.625;stroke-linejoin:round;stroke-opacity:1"/></marker><marker style="overflow:visible" id="marker1474-2" orient="auto" refX="0" refY="0"><path id="path1472-0" d="M 8.7185878,4.0337352 -2.2072895,0.01601326 8.7185884,-4.0017078 c -1.7454984,2.3720609 -1.7354408,5.6174519 -6e-7,8.035443 z" transform="matrix(-1.1,0,0,-1.1,-1.1,0)" style="fill:#00f;fill-opacity:1;fill-rule:evenodd;stroke:#00f;stroke-width:.625;stroke-linejoin:round;stroke-opacity:1"/></marker><marker style="overflow:visible" id="Arrow2Lend-5" orient="auto" refX="0" refY="0"><path id="path1011-3" d="M 8.7185878,4.0337352 -2.2072895,0.01601326 8.7185884,-4.0017078 c -1.7454984,2.3720609 -1.7354408,5.6174519 -6e-7,8.035443 z" transform="matrix(-1.1,0,0,-1.1,-1.1,0)" style="fill:#00f;fill-opacity:1;fill-rule:evenodd;stroke:#00f;stroke-width:.625;stroke-linejoin:round;stroke-opacity:1"/></marker><marker style="overflow:visible" id="DotL-2" orient="auto" refX="0" refY="0"><path transform="matrix(0.8,0,0,0.8,5.92,0.8)" style="fill:#00f;fill-opacity:1;fill-rule:evenodd;stroke:#00f;stroke-width:1pt;stroke-opacity:1" id="path1051-4" d="m -2.5,-1 c 0,2.76 -2.24,5 -5,5 -2.76,0 -5,-2.24 -5,-5 0,-2.76 2.24,-5 5,-5 2.76,0 5,2.24 5,5 z"/></marker><marker style="overflow:visible" id="marker1886-3" orient="auto" refX="0" refY="0"><path transform="matrix(0.8,0,0,0.8,5.92,0.8)" style="fill:red;fill-opacity:1;fill-rule:evenodd;stroke:red;stroke-width:1pt;stroke-opacity:1" id="path1884-5" d="m -2.5,-1 c 0,2.76 -2.24,5 -5,5 -2.76,0 -5,-2.24 -5,-5 0,-2.76 2.24,-5 5,-5 2.76,0 5,2.24 5,5 z"/></marker><marker style="overflow:visible" id="Arrow2Lstart-6" orient="auto" refX="0" refY="0"><path id="path1008-3" d="M 8.7185878,4.0337352 -2.2072895,0.01601326 8.7185884,-4.0017078 c -1.7454984,2.3720609 -1.7354408,5.6174519 -6e-7,8.035443 z" transform="matrix(1.1,0,0,1.1,1.1,0)" style="fill:red;fill-opacity:1;fill-rule:evenodd;stroke:red;stroke-width:.625;stroke-linejoin:round;stroke-opacity:1"/></marker></defs><metadata id="metadata5"/><g id="layer1" transform="translate(-0.46124974,-3.2745089)"><rect style="fill:none;stroke:#000;stroke-width:.665001;stroke-linejoin:round" id="rect833" width="31.75" height="30.692" x=".794" y="12.552" rx="5" ry="5"/><text xml:space="preserve" style="font-style:normal;font-variant:normal;font-weight:400;font-stretch:normal;font-size:4.23333px;line-height:1.25;font-family:sans-serif;-inkscape-font-specification:'sans-serif, Normal';font-variant-ligatures:normal;font-variant-caps:normal;font-variant-numeric:normal;font-variant-east-asian:normal;fill:#000;fill-opacity:1;stroke:none;stroke-width:.264583" id="text837" x="119.181" y="46.868"><tspan x="119.181" y="46.868" style="font-style:normal;font-variant:normal;font-weight:400;font-stretch:normal;font-size:4.23333px;font-family:sans-serif;-inkscape-font-specification:'sans-serif, Normal';font-variant-ligatures:normal;font-variant-caps:normal;font-variant-numeric:normal;font-variant-east-asian:normal;text-align:center;text-anchor:middle;stroke-width:.264583" id="tspan841">With Route</tspan><tspan x="119.181" y="57.451" style="font-style:normal;font-variant:normal;font-weight:400;font-stretch:normal;font-size:4.23333px;font-family:sans-serif;-inkscape-font-specification:'sans-serif, Normal';font-variant-ligatures:normal;font-variant-caps:normal;font-variant-numeric:normal;font-variant-east-asian:normal;text-align:center;text-anchor:middle;stroke-width:.264583" id="tspan2409">Access 10.99.1.X</tspan><tspan x="119.181" y="62.743" style="font-style:normal;font-variant:normal;font-weight:400;font-stretch:normal;font-size:4.23333px;font-family:sans-serif;-inkscape-font-specification:'sans-serif, Normal';font-variant-ligatures:normal;font-variant-caps:normal;font-variant-numeric:normal;font-variant-east-asian:normal;text-align:center;text-anchor:middle;stroke-width:.264583" id="tspan2411">via 192.168.1.10</tspan></text><rect style="fill:none;stroke:#000;stroke-width:.665001;stroke-linejoin:round" id="rect833-5" width="31.75" height="30.692" x="61.383" y="12.552" rx="5" ry="5"/><text xml:space="preserve" style="font-style:normal;font-variant:normal;font-weight:400;font-stretch:normal;font-size:4.23333px;line-height:1.25;font-family:sans-serif;-inkscape-font-specification:'sans-serif, Normal';font-variant-ligatures:normal;font-variant-caps:normal;font-variant-numeric:normal;font-variant-east-asian:normal;fill:#000;fill-opacity:1;stroke:none;stroke-width:.264583" id="text837-4" x="77.113" y="21.534"><tspan id="tspan835-0" x="77.113" y="21.534" style="font-style:normal;font-variant:normal;font-weight:400;font-stretch:normal;font-size:4.23333px;font-family:sans-serif;-inkscape-font-specification:'sans-serif, Normal';font-variant-ligatures:normal;font-variant-caps:normal;font-variant-numeric:normal;font-variant-east-asian:normal;text-align:center;text-anchor:middle;stroke-width:.264583">Extender</tspan><tspan x="77.113" y="26.825" style="font-style:normal;font-variant:normal;font-weight:400;font-stretch:normal;font-size:4.23333px;font-family:sans-serif;-inkscape-font-specification:'sans-serif, Normal';font-variant-ligatures:normal;font-variant-caps:normal;font-variant-numeric:normal;font-variant-east-asian:normal;text-align:center;text-anchor:middle;stroke-width:.264583" id="tspan839-2">ESP</tspan><tspan x="77.113" y="32.117" style="font-style:normal;font-variant:normal;font-weight:400;font-stretch:normal;font-size:4.23333px;font-family:sans-serif;-inkscape-font-specification:'sans-serif, Normal';font-variant-ligatures:normal;font-variant-caps:normal;font-variant-numeric:normal;font-variant-east-asian:normal;text-align:center;text-anchor:middle;stroke-width:.264583" id="tspan841-9">10.99.1.1</tspan><tspan x="77.113" y="37.409" style="font-style:normal;font-variant:normal;font-weight:400;font-stretch:normal;font-size:4.23333px;font-family:sans-serif;-inkscape-font-specification:'sans-serif, Normal';font-variant-ligatures:normal;font-variant-caps:normal;font-variant-numeric:normal;font-variant-east-asian:normal;text-align:center;text-anchor:middle;stroke-width:.264583" id="tspan917">192.168.1.10</tspan></text><path style="fill:none;stroke:#000;stroke-width:.963699;stroke-linejoin:round" id="path919" d="m 153.85521,51.77896 -1.75429,-3.97859 -3.21019,6.915266 -0.96964,-4.238693 -4.4609,6.182765 -0.14994,-4.345598 -5.55038,5.226802 0.67518,-4.295442 -6.43926,4.081929 1.4759,-4.090039 -7.0954,2.789525 2.22327,-3.736809 -7.4951,1.3963 2.89029,-3.248523 -7.62391,-0.04739 3.45285,-2.642826 -7.47717,-1.489369 3.89061,-1.941611 -7.06018,-2.877517 4.18776,-1.17022 -6.38802,-4.161665 4.33354,-0.356535 -5.48498,-5.295399 4.3227,0.470036 -4.38369,-6.237744 4.15563,1.27962 -3.12398,-6.95464 3.83836,2.042953 -1.75135,-7.420177 3.38237,2.73245 -0.31542,-7.6175302 2.80413,3.3231892 1.1319,-7.5395662 2.12453,3.7938186 2.53833,-7.1891016 1.36815,4.12733 3.853,-6.5788046 0.56233,4.3116689 5.02841,-5.7307325 -0.26382,4.3401729 6.0221,-4.6755368 -1.08044,4.2118118 6.79812,-3.4513551 -1.85801,3.9312248 7.32844,-2.1024323 -2.56841,3.5085531 7.59389,-0.6775222 -3.186,2.9590732 7.58489,0.7718753 -3.68843,2.3026446 7.30173,2.1933751 -4.05755,1.562993 6.75468,3.535601 -4.28003,0.766849 5.96351,4.750041 -4.34781,-0.05701 4.95678,5.792802 -4.25845,-0.878808 3.77091,6.626196 -4.01518,-1.668843 2.44876,7.220102 -3.62679,-2.398563 1.03808,7.553055 -3.10731,-3.041592 -0.4101,7.61302 -2.47554,-3.57469 z" transform="matrix(0.69004936,0,0,0.69005148,50.244197,9.103469)"/><text xml:space="preserve" style="font-style:normal;font-variant:normal;font-weight:400;font-stretch:normal;font-size:4.23333px;line-height:1.25;font-family:sans-serif;-inkscape-font-specification:'sans-serif, Normal';font-variant-ligatures:normal;font-variant-caps:normal;font-variant-numeric:normal;font-variant-east-asian:normal;fill:#000;fill-opacity:1;stroke:none;stroke-width:.264583" id="text837-4-4" x="144.065" y="26.825"><tspan x="144.065" y="26.825" style="font-style:normal;font-variant:normal;font-weight:400;font-stretch:normal;font-size:4.23333px;font-family:sans-serif;-inkscape-font-specification:'sans-serif, Normal';font-variant-ligatures:normal;font-variant-caps:normal;font-variant-numeric:normal;font-variant-east-asian:normal;text-align:center;text-anchor:middle;stroke-width:.264583" id="tspan917-3">AP / Router</tspan><tspan x="144.065" y="32.117" style="font-style:normal;font-variant:normal;font-weight:400;font-stretch:normal;font-size:4.23333px;font-family:sans-serif;-inkscape-font-specification:'sans-serif, Normal';font-variant-ligatures:normal;font-variant-caps:normal;font-variant-numeric:normal;font-variant-east-asian:normal;text-align:center;text-anchor:middle;stroke-width:.264583" id="tspan968">192.168.1.1</tspan></text><path style="fill:none;stroke:#00f;stroke-width:.5;stroke-linecap:butt;stroke-linejoin:miter;stroke-miterlimit:4;stroke-dasharray:none;stroke-opacity:1;marker-start:url(#Arrow2Lend);marker-end:url(#DotL)" id="path988" d="m 27.516667,15.081249 c 0,0 22.919746,-24.0872105 49.741665,1.058334"/><path style="fill:none;stroke:#00f;stroke-width:.5;stroke-linecap:butt;stroke-linejoin:miter;stroke-miterlimit:4;stroke-dasharray:none;stroke-opacity:1;marker-start:url(#Arrow2Lend-4);marker-end:url(#marker1474)" id="path988-4" d="m 83.837469,11.678917 c 0,0 30.592661,-20.912211 57.414581,4.233334"/><path style="fill:none;stroke:red;stroke-width:.5;stroke-linecap:butt;stroke-linejoin:miter;stroke-miterlimit:4;stroke-dasharray:none;stroke-opacity:1;marker-start:url(#marker2072);marker-end:url(#marker2166)" id="path988-0" d="m 17.499671,42.38563 c 0,0 27.153079,28.585128 53.974998,3.439583"/><path style="fill:none;stroke:red;stroke-width:.5;stroke-linecap:butt;stroke-linejoin:miter;stroke-miterlimit:4;stroke-dasharray:none;stroke-opacity:1;marker-start:url(#marker1886);marker-end:url(#Arrow2Lstart)" id="path988-4-8" d="m 76.995473,40.231712 c 0,0 35.166847,26.39598 61.988767,1.250435"/><text xml:space="preserve" style="font-style:normal;font-variant:normal;font-weight:400;font-stretch:normal;font-size:4.23333px;line-height:1.25;font-family:sans-serif;-inkscape-font-specification:'sans-serif, Normal';font-variant-ligatures:normal;font-variant-caps:normal;font-variant-numeric:normal;font-variant-east-asian:normal;fill:#000;fill-opacity:1;stroke:none;stroke-width:.264583" id="text837-9" x="17.317" y="24.79"><tspan id="tspan835-1" x="17.317" y="24.79" style="font-style:normal;font-variant:normal;font-weight:400;font-stretch:normal;font-size:4.23333px;font-family:sans-serif;-inkscape-font-specification:'sans-serif, Normal';font-variant-ligatures:normal;font-variant-caps:normal;font-variant-numeric:normal;font-variant-east-asian:normal;text-align:center;text-anchor:middle;stroke-width:.264583">Remote</tspan><tspan x="17.317" y="30.082" style="font-style:normal;font-variant:normal;font-weight:400;font-stretch:normal;font-size:4.23333px;font-family:sans-serif;-inkscape-font-specification:'sans-serif, Normal';font-variant-ligatures:normal;font-variant-caps:normal;font-variant-numeric:normal;font-variant-east-asian:normal;text-align:center;text-anchor:middle;stroke-width:.264583" id="tspan839-0">ESP</tspan><tspan x="17.317" y="35.374" style="font-style:normal;font-variant:normal;font-weight:400;font-stretch:normal;font-size:4.23333px;font-family:sans-serif;-inkscape-font-specification:'sans-serif, Normal';font-variant-ligatures:normal;font-variant-caps:normal;font-variant-numeric:normal;font-variant-east-asian:normal;text-align:center;text-anchor:middle;stroke-width:.264583" id="tspan841-2">10.99.1.100</tspan></text><path style="fill:none;stroke:#000;stroke-width:.5;stroke-linecap:butt;stroke-linejoin:miter;stroke-miterlimit:4;stroke-dasharray:none;stroke-opacity:1;marker-end:url(#marker1331)" id="path3139" d="m 162.08453,27.080995 25.76963,0.171088"/><text xml:space="preserve" style="font-style:normal;font-variant:normal;font-weight:400;font-stretch:normal;font-size:4.23333px;line-height:1.25;font-family:sans-serif;-inkscape-font-specification:'sans-serif, Normal';font-variant-ligatures:normal;font-variant-caps:normal;font-variant-numeric:normal;font-variant-east-asian:normal;fill:#000;fill-opacity:1;stroke:none;stroke-width:.264583" id="text837-8" x="186.045" y="34.312"><tspan x="186.045" y="34.312" style="font-style:normal;font-variant:normal;font-weight:400;font-stretch:normal;font-size:4.23333px;font-family:sans-serif;-inkscape-font-specification:'sans-serif, Normal';font-variant-ligatures:normal;font-variant-caps:normal;font-variant-numeric:normal;font-variant-east-asian:normal;text-align:center;text-anchor:middle;stroke-width:.264583" id="tspan2411-3">Default</tspan><tspan x="186.045" y="39.604" style="font-style:normal;font-variant:normal;font-weight:400;font-stretch:normal;font-size:4.23333px;font-family:sans-serif;-inkscape-font-specification:'sans-serif, Normal';font-variant-ligatures:normal;font-variant-caps:normal;font-variant-numeric:normal;font-variant-east-asian:normal;text-align:center;text-anchor:middle;stroke-width:.264583" id="tspan1723">Gateway</tspan></text><text xml:space="preserve" style="font-style:normal;font-variant:normal;font-weight:400;font-stretch:normal;font-size:4.23333px;line-height:1.25;font-family:sans-serif;-inkscape-font-specification:'sans-serif, Normal';font-variant-ligatures:normal;font-variant-caps:normal;font-variant-numeric:normal;font-variant-east-asian:normal;fill:#000;fill-opacity:1;stroke:none;stroke-width:.264583" id="text837-3" x="178.902" y="50.256"><tspan x="178.902" y="50.256" style="font-style:normal;font-variant:normal;font-weight:400;font-stretch:normal;font-size:4.23333px;font-family:sans-serif;-inkscape-font-specification:'sans-serif, Normal';font-variant-ligatures:normal;font-variant-caps:normal;font-variant-numeric:normal;font-variant-east-asian:normal;text-align:center;text-anchor:middle;stroke-width:.264583" id="tspan2411-5">Without Route</tspan></text><path style="fill:none;stroke:red;stroke-width:.5;stroke-linecap:butt;stroke-linejoin:miter;stroke-miterlimit:4;stroke-dasharray:.5,1;stroke-dashoffset:0;stroke-opacity:1;marker-end:url(#Arrow2Lstart-6)" id="path988-4-8-2" d="m 195.4306,42.479415 c 0,0 -23.9241,2.529315 -42.61051,-3.037063"/></g></svg>