<svg xmlns="http://www.w3.org/2000/svg" width="740" height="620" version="1.1" style="background-color:#fff"><text x="210" y="370" style="font-family:Arial;font-size:11px;text-anchor:start" dominant-baseline="middle" transform="rotate(0, 210, 370)">Button_n (external pull up)</text><text x="190" y="580" style="font-family:Arial;font-size:11px;text-anchor:start" dominant-baseline="middle" transform="rotate(0, 190, 580)">All boards are supposed to have those to insure proper boot conditions</text><text x="190" y="560" style="font-family:Arial;font-size:11px;text-anchor:start" dominant-baseline="middle" transform="rotate(0, 190, 560)">No need for external pull-down on GPIO15</text><text x="190" y="540" style="font-family:Arial;font-size:11px;text-anchor:start" dominant-baseline="middle" transform="rotate(0, 190, 540)">No need for external pull-up on GPIO0 and GPIO2</text><text x="560" y="430" style="font-family:Arial;font-size:11px;text-anchor:start" dominant-baseline="middle" transform="rotate(0, 560, 430)">GPIO15</text><text x="510" y="430" style="font-family:Arial;font-size:11px;text-anchor:start" dominant-baseline="middle" transform="rotate(0, 510, 430)">Except :</text><line x1="450" x2="450" y1="350" y2="355" style="stroke:#000;stroke-linecap:square;stroke-width:2"/><line x1="450" x2="450" y1="395" y2="400" style="stroke:#000;stroke-linecap:square;stroke-width:2"/><rect width="16" height="40" x="442" y="355" style="fill-opacity:0;fill:#000;stroke:#000;stroke-width:2"/><text x="436" y="375" style="font-family:Arial;font-size:11px;text-anchor:end" dominant-baseline="middle" transform="rotate(0, 436, 375)">4.7 kΩ</text><text x="510" y="410" style="font-family:Arial;font-size:11px;text-anchor:start" dominant-baseline="middle" transform="rotate(0, 510, 410)">GPIOx</text><line x1="450" x2="500" y1="410" y2="410" style="stroke:#000;stroke-linecap:square;stroke-width:2"/><line x1="450" x2="450" y1="460" y2="490" style="stroke:#000;stroke-linecap:square;stroke-width:2"/><line x1="450" x2="450" y1="400" y2="430" style="stroke:#000;stroke-linecap:square;stroke-width:2"/><text x="450" y="325" style="font-family:Arial;font-size:12px;text-anchor:middle" dominant-baseline="baseline" transform="rotate(0, 450, 325)">+3.3V</text><line x1="450" x2="450" y1="330" y2="350" style="stroke:#000;stroke-linecap:square;stroke-width:2"/><line x1="450" x2="450" y1="490" y2="492" style="stroke:#000;stroke-linecap:square;stroke-width:2"/><path d="M 442,492 L 458,492 L 450,500 L 442,492" style="fill-opacity:0;fill:#000;stroke:#000;stroke-linecap:square;stroke-width:2"/><line x1="450" x2="450" y1="430" y2="431" style="stroke:#000;stroke-linecap:square;stroke-width:2"/><line x1="450" x2="450" y1="459" y2="460" style="stroke:#000;stroke-linecap:square;stroke-width:2"/><ellipse cx="450" cy="434" rx="3" ry="3" style="fill-opacity:0;fill:#000;stroke:#000;stroke-width:2"/><ellipse cx="450" cy="456" rx="3" ry="3" style="fill-opacity:0;fill:#000;stroke:#000;stroke-width:2"/><line x1="455" x2="455" y1="433" y2="457" style="stroke:#000;stroke-linecap:square;stroke-width:2"/><line x1="449" x2="449" y1="440" y2="450" style="stroke:#000;stroke-linecap:square;stroke-width:2"/><line x1="449" x2="455" y1="445" y2="445" style="stroke:#000;stroke-linecap:square;stroke-width:2"/><text x="290" y="450" style="font-family:Arial;font-size:11px;text-anchor:start" dominant-baseline="middle" transform="rotate(0, 290, 450)">GPIO2</text><text x="290" y="430" style="font-family:Arial;font-size:11px;text-anchor:start" dominant-baseline="middle" transform="rotate(0, 290, 430)">GPIO0</text><text x="240" y="430" style="font-family:Arial;font-size:11px;text-anchor:start" dominant-baseline="middle" transform="rotate(0, 240, 430)">Except :</text><text x="240" y="410" style="font-family:Arial;font-size:11px;text-anchor:start" dominant-baseline="middle" transform="rotate(0, 240, 410)">GPIOx</text><line x1="180" x2="180" y1="390" y2="420" style="stroke:#000;stroke-linecap:square;stroke-width:2"/><text x="180" y="325" style="font-family:Arial;font-size:12px;text-anchor:middle" dominant-baseline="baseline" transform="rotate(0, 180, 325)">+3.3V</text><line x1="180" x2="180" y1="330" y2="360" style="stroke:#000;stroke-linecap:square;stroke-width:2"/><line x1="180" x2="230" y1="410" y2="410" style="stroke:#000;stroke-linecap:square;stroke-width:2"/><line x1="180" x2="180" y1="490" y2="492" style="stroke:#000;stroke-linecap:square;stroke-width:2"/><path d="M 172,492 L 188,492 L 180,500 L 172,492" style="fill-opacity:0;fill:#000;stroke:#000;stroke-linecap:square;stroke-width:2"/><line x1="180" x2="180" y1="420" y2="435" style="stroke:#000;stroke-linecap:square;stroke-width:2"/><line x1="180" x2="180" y1="475" y2="490" style="stroke:#000;stroke-linecap:square;stroke-width:2"/><rect width="16" height="40" x="172" y="435" style="fill-opacity:0;fill:#000;stroke:#000;stroke-width:2"/><text x="166" y="455" style="font-family:Arial;font-size:11px;text-anchor:end" dominant-baseline="middle" transform="rotate(0, 166, 455)">4.7 kΩ</text><line x1="180" x2="180" y1="360" y2="361" style="stroke:#000;stroke-linecap:square;stroke-width:2"/><line x1="180" x2="180" y1="389" y2="390" style="stroke:#000;stroke-linecap:square;stroke-width:2"/><ellipse cx="180" cy="364" rx="3" ry="3" style="fill-opacity:0;fill:#000;stroke:#000;stroke-width:2"/><ellipse cx="180" cy="386" rx="3" ry="3" style="fill-opacity:0;fill:#000;stroke:#000;stroke-width:2"/><line x1="185" x2="185" y1="363" y2="387" style="stroke:#000;stroke-linecap:square;stroke-width:2"/><line x1="179" x2="179" y1="370" y2="380" style="stroke:#000;stroke-linecap:square;stroke-width:2"/><line x1="179" x2="185" y1="375" y2="375" style="stroke:#000;stroke-linecap:square;stroke-width:2"/><text x="560" y="230" style="font-family:Arial;font-size:11px;text-anchor:start" dominant-baseline="middle" transform="rotate(0, 560, 230)">GPIO2</text><text x="560" y="210" style="font-family:Arial;font-size:11px;text-anchor:start" dominant-baseline="middle" transform="rotate(0, 560, 210)">GPIO0</text><text x="510" y="210" style="font-family:Arial;font-size:11px;text-anchor:start" dominant-baseline="middle" transform="rotate(0, 510, 210)">Except :</text><line x1="450" x2="450" y1="140" y2="141" style="stroke:#000;stroke-linecap:square;stroke-width:2"/><line x1="450" x2="450" y1="169" y2="170" style="stroke:#000;stroke-linecap:square;stroke-width:2"/><ellipse cx="450" cy="144" rx="3" ry="3" style="fill-opacity:0;fill:#000;stroke:#000;stroke-width:2"/><ellipse cx="450" cy="166" rx="3" ry="3" style="fill-opacity:0;fill:#000;stroke:#000;stroke-width:2"/><line x1="442" x2="442" y1="143" y2="167" style="stroke:#000;stroke-linecap:square;stroke-width:2"/><line x1="436" x2="436" y1="149" y2="161" style="stroke:#000;stroke-linecap:square;stroke-width:2"/><line x1="436" x2="442" y1="155" y2="155" style="stroke:#000;stroke-linecap:square;stroke-width:2"/><text x="510" y="190" style="font-family:Arial;font-size:11px;text-anchor:start" dominant-baseline="middle" transform="rotate(0, 510, 190)">GPIOx</text><line x1="450" x2="450" y1="170" y2="200" style="stroke:#000;stroke-linecap:square;stroke-width:2"/><text x="450" y="105" style="font-family:Arial;font-size:12px;text-anchor:middle" dominant-baseline="baseline" transform="rotate(0, 450, 105)">+3.3V</text><line x1="450" x2="450" y1="110" y2="140" style="stroke:#000;stroke-linecap:square;stroke-width:2"/><line x1="450" x2="500" y1="190" y2="190" style="stroke:#000;stroke-linecap:square;stroke-width:2"/><line x1="450" x2="450" y1="270" y2="272" style="stroke:#000;stroke-linecap:square;stroke-width:2"/><path d="M 442,272 L 458,272 L 450,280 L 442,272" style="fill-opacity:0;fill:#000;stroke:#000;stroke-linecap:square;stroke-width:2"/><line x1="450" x2="450" y1="200" y2="215" style="stroke:#000;stroke-linecap:square;stroke-width:2"/><line x1="450" x2="450" y1="255" y2="270" style="stroke:#000;stroke-linecap:square;stroke-width:2"/><rect width="16" height="40" x="442" y="215" style="fill-opacity:0;fill:#000;stroke:#000;stroke-width:2"/><text x="436" y="235" style="font-family:Arial;font-size:11px;text-anchor:end" dominant-baseline="middle" transform="rotate(0, 436, 235)">4.7 kΩ</text><text x="240" y="210" style="font-family:Arial;font-size:11px;text-anchor:start" dominant-baseline="middle" transform="rotate(0, 240, 210)">Except: GPIO15</text><line x1="180" x2="180" y1="210" y2="211" style="stroke:#000;stroke-linecap:square;stroke-width:2"/><line x1="180" x2="180" y1="239" y2="240" style="stroke:#000;stroke-linecap:square;stroke-width:2"/><ellipse cx="180" cy="214" rx="3" ry="3" style="fill-opacity:0;fill:#000;stroke:#000;stroke-width:2"/><ellipse cx="180" cy="236" rx="3" ry="3" style="fill-opacity:0;fill:#000;stroke:#000;stroke-width:2"/><line x1="172" x2="172" y1="213" y2="237" style="stroke:#000;stroke-linecap:square;stroke-width:2"/><line x1="166" x2="166" y1="219" y2="231" style="stroke:#000;stroke-linecap:square;stroke-width:2"/><line x1="166" x2="172" y1="225" y2="225" style="stroke:#000;stroke-linecap:square;stroke-width:2"/><line x1="180" x2="180" y1="130" y2="135" style="stroke:#000;stroke-linecap:square;stroke-width:2"/><line x1="180" x2="180" y1="175" y2="180" style="stroke:#000;stroke-linecap:square;stroke-width:2"/><rect width="16" height="40" x="172" y="135" style="fill-opacity:0;fill:#000;stroke:#000;stroke-width:2"/><text x="166" y="155" style="font-family:Arial;font-size:11px;text-anchor:end" dominant-baseline="middle" transform="rotate(0, 166, 155)">4.7 kΩ</text><text x="240" y="190" style="font-family:Arial;font-size:11px;text-anchor:start" dominant-baseline="middle" transform="rotate(0, 240, 190)">GPIOx</text><line x1="180" x2="230" y1="190" y2="190" style="stroke:#000;stroke-linecap:square;stroke-width:2"/><line x1="180" x2="180" y1="240" y2="270" style="stroke:#000;stroke-linecap:square;stroke-width:2"/><line x1="180" x2="180" y1="180" y2="210" style="stroke:#000;stroke-linecap:square;stroke-width:2"/><text x="180" y="105" style="font-family:Arial;font-size:12px;text-anchor:middle" dominant-baseline="baseline" transform="rotate(0, 180, 105)">+3.3V</text><line x1="180" x2="180" y1="110" y2="130" style="stroke:#000;stroke-linecap:square;stroke-width:2"/><line x1="180" x2="180" y1="270" y2="272" style="stroke:#000;stroke-linecap:square;stroke-width:2"/><path d="M 172,272 L 188,272 L 180,280 L 172,272" style="fill-opacity:0;fill:#000;stroke:#000;stroke-linecap:square;stroke-width:2"/><text x="480" y="380" style="font-family:Arial;font-size:11px;text-anchor:start" dominant-baseline="middle" transform="rotate(0, 480, 380)">Button_in (inverted, external pull down)</text><text x="480" y="360" style="font-family:Arial;font-size:11px;text-anchor:start" dominant-baseline="middle" transform="rotate(0, 480, 360)">Button_i (inverted, internal pull up)</text><text x="450" y="60" style="font-family:Arial;font-size:11px;text-anchor:start" dominant-baseline="middle" transform="rotate(0, 450, 60)">HI when pressed</text><text x="450" y="40" style="font-family:Arial;font-size:11px;text-anchor:start" dominant-baseline="middle" transform="rotate(0, 450, 40)">Normally LOW</text><text x="480" y="150" style="font-family:Arial;font-size:11px;text-anchor:start" dominant-baseline="middle" transform="rotate(0, 480, 150)">Button_in (inverted, external pull down)</text><text x="210" y="160" style="font-family:Arial;font-size:11px;text-anchor:start" dominant-baseline="middle" transform="rotate(0, 210, 160)">Button_n (external pull up)</text><text x="210" y="140" style="font-family:Arial;font-size:11px;text-anchor:start" dominant-baseline="middle" transform="rotate(0, 210, 140)">Button (internal pull up)</text><text x="170" y="60" style="font-family:Arial;font-size:11px;text-anchor:start" dominant-baseline="middle" transform="rotate(0, 170, 60)">LOW when pressed</text><text x="170" y="40" style="font-family:Arial;font-size:11px;text-anchor:start" dominant-baseline="middle" transform="rotate(0, 170, 40)">Normally HI</text><text x="20" y="390" style="font-family:Arial;font-size:11px;text-anchor:start" dominant-baseline="middle" transform="rotate(0, 20, 390)">Open when pressed</text><text x="20" y="370" style="font-family:Arial;font-size:11px;text-anchor:start" dominant-baseline="middle" transform="rotate(0, 20, 370)">Normally Closed</text><text x="20" y="350" style="font-family:Arial;font-size:11px;text-anchor:start" dominant-baseline="middle" transform="rotate(0, 20, 350)">PUSH-TO-BREAK</text><text x="20" y="240" style="font-family:Arial;font-size:11px;text-anchor:start" dominant-baseline="middle" transform="rotate(0, 20, 240)">Closed when pressed</text><text x="20" y="220" style="font-family:Arial;font-size:11px;text-anchor:start" dominant-baseline="middle" transform="rotate(0, 20, 220)">Normally Opened</text><text x="20" y="200" style="font-family:Arial;font-size:11px;text-anchor:start" dominant-baseline="middle" transform="rotate(0, 20, 200)">PUSH-TO-MAKE</text><ellipse cx="450" cy="410" rx="2" ry="2" style="fill-opacity:1;fill:#000;stroke:#000;stroke-width:2"/><ellipse cx="180" cy="410" rx="2" ry="2" style="fill-opacity:1;fill:#000;stroke:#000;stroke-width:2"/><ellipse cx="450" cy="190" rx="2" ry="2" style="fill-opacity:1;fill:#000;stroke:#000;stroke-width:2"/><ellipse cx="180" cy="190" rx="2" ry="2" style="fill-opacity:1;fill:#000;stroke:#000;stroke-width:2"/></svg>