<?xml version="1.0" encoding="utf-8"?>
<!-- Generator: Adobe Illustrator 16.0.0, SVG Export Plug-In . SVG Version: 6.00 Build 0)  -->
<!DOCTYPE svg PUBLIC "-//W3C//DTD SVG 1.1//EN" "http://www.w3.org/Graphics/SVG/1.1/DTD/svg11.dtd">
<svg version="1.1" id="图层_1" xmlns="http://www.w3.org/2000/svg" xmlns:xlink="http://www.w3.org/1999/xlink" x="0px" y="0px"
	 width="267.438px" height="125.825px" viewBox="0 0 267.438 125.825" enable-background="new 0 0 267.438 125.825"
	 xml:space="preserve">
<g>
	<g>
		<path fill="#2E2E39" d="M152.72,62.079c-0.258,4.92-4.143,9.522-8.637,11.12l-0.078,0.256c2.972,0.639,7.598,3.834,7.307,9.394
			c-0.485,9.267-7.577,14.061-18.443,14.061h-12.72c-1.534,0-2.082-0.512-2.012-1.854c0.023-0.447,0.275-1.599,6.346-40.582
			c0.212-1.597,1.015-2.3,2.677-2.3h12.336C149.02,52.173,153.031,56.136,152.72,62.079z M129.15,77.609l-1.919,12.206h7.479
			c4.603,0,7.872-2.621,8.103-7.03c0.175-3.323-2.349-5.176-7.207-5.176H129.15z M132.097,59.203l-1.808,11.312h5.625
			c4.729,0,7.827-3.003,8.015-6.583c0.164-3.131-1.861-4.729-6.271-4.729H132.097z"/>
		<path fill="#2E2E39" d="M170.63,83.68c-2.685,0-4.591-0.192-6.24-0.447c-0.193,6.135,2.854,7.733,7.265,7.733
			c5.369,0,9.295-2.94,10.062-2.94c0.256,0,0.512,0,0.469,0.831c-0.077,0.256-0.353,3.068-0.665,4.154
			c-1.073,3.387-7.899,4.346-11.159,4.346c-8.885,0-14.614-4.09-14.108-13.741c0.71-13.547,8.109-20.578,18.656-20.578
			c9.588,0,11.527,5.688,11.356,8.948C185.81,80.676,177.789,83.68,170.63,83.68z M168.628,77.992c4.538,0,9.473-1.47,9.66-5.049
			c0.113-2.172-1.605-3.515-4.354-3.515c-5.241,0-7.746,3.897-8.886,8.563H168.628z"/>
		<path fill="#2E2E39" d="M213.048,65.786c-0.101,1.917-1.734,5.048-2.565,5.048c-0.575,0-0.929-0.575-2.526-0.575
			c-2.493,0-5.032,2.109-6.822,5.752c-1.136,8.244-2.925,19.236-2.925,19.236c-0.188,1.15-1.437,1.789-3.674,1.789h-1.214
			c-2.237,0-3.153-0.83-3.106-1.725l3.369-21.602c0.272-1.534,0.508-3.579,0.574-4.856c0.07-1.342,0.054-2.237,0.098-3.068
			c0.073-1.406,3.299-1.981,6.111-1.981c1.534,0,1.867,2.173,1.754,4.346c1.931-2.684,4.551-5.113,8.002-5.113
			C212.36,63.037,213.118,64.443,213.048,65.786z"/>
		<path fill="#2E2E39" d="M236.439,65.786c-0.101,1.917-1.734,5.048-2.565,5.048c-0.575,0-0.929-0.575-2.526-0.575
			c-2.493,0-5.033,2.109-6.822,5.752c-1.135,8.244-2.925,19.236-2.925,19.236c-0.188,1.15-1.437,1.789-3.674,1.789h-1.214
			c-2.237,0-3.153-0.83-3.106-1.725l3.369-21.602c0.272-1.534,0.508-3.579,0.574-4.856c0.07-1.342,0.054-2.237,0.098-3.068
			c0.073-1.406,3.299-1.981,6.111-1.981c1.534,0,1.867,2.173,1.754,4.346c1.931-2.684,4.551-5.113,8.002-5.113
			C235.752,63.037,236.51,64.443,236.439,65.786z"/>
		<path fill="#2E2E39" d="M267.437,64.571c-0.017,0.32-0.101,0.703-0.315,1.151l-22.137,43.074
			c-0.497,0.959-1.796,1.342-3.586,1.342h-1.022c-2.109,0-3.045-0.447-3.008-1.15c0.014-0.256,0.165-0.702,0.447-1.215l6.355-11.503
			c-6.053-30.867-6.1-31.187-6.087-31.443c0.047-0.894,1.101-1.47,3.721-1.47h1.471c1.598,0,2.859,0.32,3.068,1.214l2.587,14.06
			c0.3,1.598,0.536,4.41,0.796,6.774h0.191c0.887-2.301,2.128-5.24,2.848-6.774l7.065-14.06c0.43-0.895,1.661-1.214,3.387-1.214
			h1.087C266.542,63.357,267.477,63.805,267.437,64.571z"/>
	</g>
	<path fill="#00AD4E" d="M97.933,60.46c-2.896-8.961-8.238-16.822-15.263-22.775c10.08-5.3,18.689-12.97,25.09-22.279l-0.029-0.021
		c0.959-1.54,1.529-3.359,1.529-5.31c0-5.521-4.48-10-10-10c-3.9,0-7.45,2.239-9.1,5.489C81.149,17.725,67,25.665,50,25.825
		c-5.382,0-10.593,0.903-15.497,2.547C58.322,33.893,79.963,45.092,97.933,60.46z"/>
	<path fill="#68BF00" d="M32.759,51.536c4.944-3.589,11.023-5.711,17.601-5.711c16.57,0,30,13.43,30,30
		c0,8.086-3.203,15.418-8.403,20.813c3.077,6.018,5.865,12.437,8.34,19.19c12.172-9.122,20.063-23.646,20.063-40.003
		c0-5.364-0.861-10.523-2.427-15.365c-17.97-15.368-39.61-26.567-63.43-32.088c-7.396,2.479-14.083,6.661-19.543,12.103
		c-0.938,0.935-1.83,1.915-2.693,2.92C19.381,44.853,26.242,47.622,32.759,51.536z"/>
	<path fill="#FFAF0D" d="M32.759,51.536c-6.517-3.915-13.378-6.683-20.492-8.141C4.772,52.129,0.18,63.45,0.18,75.825
		c0,27.61,22.48,50,50.09,50c11.253,0,21.652-3.721,30.026-9.997c-2.475-6.754-5.263-13.173-8.34-19.19
		c-5.456,5.661-13.112,9.188-21.597,9.188c-16.57,0-30-13.43-30-30C20.359,65.833,25.248,56.988,32.759,51.536z"/>
</g>
</svg>
