<svg xmlns="http://www.w3.org/2000/svg" xmlns:svg="http://www.w3.org/2000/svg" id="svg8" width="109.08" height="125.75" version="1.1" viewBox="0 0 28.861 33.271"><metadata id="metadata5"/><g id="layer1" transform="translate(-92.477439,-113.58813)"><g id="g93" transform="matrix(0.26458333,0,0,0.26458333,92.429814,113.56829)"><path style="fill:#00ad4e" id="path87" d="M 97.933,60.46 C 95.037,51.499 89.695,43.638 82.67,37.685 c 10.08,-5.3 18.689,-12.97 25.09,-22.279 l -0.029,-0.021 c 0.959,-1.54 1.529,-3.359 1.529,-5.31 0,-5.521 -4.48,-10 -10,-10 -3.9,0 -7.45,2.239 -9.1,5.489 C 81.149,17.725 67,25.665 50,25.825 c -5.382,0 -10.593,0.903 -15.497,2.547 23.819,5.521 45.46,16.72 63.43,32.088 z"/><path style="fill:#68bf00" id="path89" d="m 32.759,51.536 c 4.944,-3.589 11.023,-5.711 17.601,-5.711 16.57,0 30,13.43 30,30 0,8.086 -3.203,15.418 -8.403,20.813 3.077,6.018 5.865,12.437 8.34,19.19 12.172,-9.122 20.063,-23.646 20.063,-40.003 0,-5.364 -0.861,-10.523 -2.427,-15.365 C 79.963,45.092 58.323,33.893 34.503,28.372 27.107,30.851 20.42,35.033 14.96,40.475 c -0.938,0.935 -1.83,1.915 -2.693,2.92 7.114,1.458 13.975,4.227 20.492,8.141 z"/><path style="fill:#ffaf0d" id="path91" d="M 32.759,51.536 C 26.242,47.621 19.381,44.853 12.267,43.395 4.772,52.129 0.18,63.45 0.18,75.825 c 0,27.61 22.48,50 50.09,50 11.253,0 21.652,-3.721 30.026,-9.997 -2.475,-6.754 -5.263,-13.173 -8.34,-19.19 -5.456,5.661 -13.112,9.188 -21.597,9.188 -16.57,0 -30,-13.43 -30,-30 0,-9.993 4.889,-18.838 12.4,-24.29 z"/></g></g></svg>